<svg viewBox="0 0 640 400" data-background-color="#260050" preserveAspectRatio="xMidYMid meet" height="400" width="640" xmlns="http://www.w3.org/2000/svg" xmlns:xlink="http://www.w3.org/1999/xlink">
  <rect width="640" height="400" x="0" y="0" opacity="1" fill="#260050" data-fill-palette-color="background" id="background"></rect>
  <g id="tight-bounds" transform="matrix(1,0,0,1,197.78432,76.4)">
    <svg viewBox="0 0 244.43135999999998 247.2" height="247.2" width="244.43135999999998">
      <g>
        <svg></svg>
      </g>
      <g>
        <svg viewBox="0 0 244.43135999999998 247.2" height="247.2" width="244.43135999999998">
          <g transform="matrix(1,0,0,1,0,79.10041677308024)">
            <svg viewBox="0 0 244.43135999999998 88.9991664538395" height="88.9991664538395" width="244.43135999999998">
              <g>
                <svg viewBox="0 0 244.43135999999998 88.9991664538395" height="88.9991664538395" width="244.43135999999998">
                  <g>
                    <svg viewBox="0 0 244.43136 88.99916645383952" height="88.9991664538395" width="244.43135999999998">
                      <g>
                        <svg viewBox="0 0 244.43136 88.99916645383952" height="88.99916645383952" width="244.43136">
                          <g>
                            <svg viewBox="0 0 244.43136 88.99916645383952" height="88.99916645383952" width="244.43136">
                              <g>
                                <svg viewBox="0 0 244.43136 88.99916645383952" height="88.99916645383952" width="244.43136">
                                  <g transform="matrix(1,0,0,1,0,0)">
                                    <svg width="244.43136" viewBox="-0.30000001192092896 -34.54999923706055 115.88999938964844 42.20000076293945" height="88.99916645383952" data-palette-color="#83fcea">
                                      <path d="M10.9-34.55L10.9-5.05Q10.9 0.45 8.43 3.25 5.95 6.05 1.4 7.65L1.4 7.65-0.3 3.05Q1.7 2.15 2.7 1.1 3.7 0.05 4.05-1.4 4.4-2.85 4.4-5.3L4.4-5.3 4.4-34.55 10.9-34.55ZM14.6-34.55L38-34.55 37.3-29.45 29.35-29.45 29.35 0 22.9 0 22.9-29.45 14.6-29.45 14.6-34.55ZM49.65-34.55Q54.34-34.55 57.82-33.2 61.3-31.85 63.47-28.08 65.65-24.3 65.65-17.45L65.65-17.45Q65.65-7.75 61.37-3.88 57.09 0 50.4 0L50.4 0 41.6 0 41.6-34.55 49.65-34.55ZM50.7-29.7L48.1-29.7 48.1-4.85 50.85-4.85Q54.7-4.85 56.82-7.55 58.95-10.25 58.95-17.45L58.95-17.45Q58.95-22.45 57.87-25.15 56.8-27.85 55.02-28.78 53.25-29.7 50.7-29.7L50.7-29.7ZM90.99-13.85Q90.99-13.4 90.84-11.3L90.84-11.3 75.89-11.3Q76.19-7.3 77.59-5.65 78.99-4 81.49-4L81.49-4Q83.09-4 84.49-4.55 85.89-5.1 87.49-6.25L87.49-6.25 90.09-2.7Q86.14 0.75 81.04 0.75L81.04 0.75Q75.49 0.75 72.49-2.9 69.49-6.55 69.49-13.05L69.49-13.05Q69.49-19.45 72.37-23.33 75.24-27.2 80.39-27.2L80.39-27.2Q85.39-27.2 88.19-23.75 90.99-20.3 90.99-13.85L90.99-13.85ZM84.84-15.35L84.84-15.65Q84.84-19.25 83.79-21.03 82.74-22.8 80.44-22.8L80.44-22.8Q78.34-22.8 77.22-21.08 76.09-19.35 75.89-15.35L75.89-15.35 84.84-15.35ZM109.34-26.45L115.59-26.45 107.94 0 100.54 0 92.74-26.45 99.29-26.45 104.29-5 109.34-26.45Z" opacity="1" transform="matrix(1,0,0,1,0,0)" fill="#83fcea" class="undefined-text-0" data-fill-palette-color="primary" id="text-0"></path>
                                    </svg>
                                  </g>
                                </svg>
                              </g>
                            </svg>
                          </g>
                        </svg>
                      </g>
                      <g></g>
                    </svg>
                  </g>
                </svg>
              </g>
            </svg>
          </g>
          <path d="M0 73.1L0 1 244.431 1 244.431 73.1 236.405 73.1 236.405 9.026 8.026 9.026 8.026 73.1 0 73.1M0 174.1L0 246.2 244.431 246.2 244.431 174.1 236.405 174.1 236.405 238.174 8.026 238.174 8.026 174.1 0 174.1" fill="#83fcea" stroke="transparent" data-fill-palette-color="primary"></path>
        </svg>
      </g>
    </svg>
    <rect width="244.43135999999998" height="247.2" fill="none" stroke="none" visibility="hidden"></rect>
  </g>
  <defs></defs>
</svg>