<svg id="svg" version="1.1" xmlns="http://www.w3.org/2000/svg" xmlns:xlink="http://www.w3.org/1999/xlink" width="400" height="400" viewBox="0, 0, 400,400"><g id="svgg"><path id="path0" d="M76.800 171.000 C 76.055 171.550,75.318 172.000,75.162 172.000 C 75.007 172.000,73.737 172.713,72.340 173.584 C 70.943 174.456,68.284 176.031,66.431 177.084 C 64.577 178.138,62.292 179.450,61.352 180.000 C 60.413 180.550,58.492 181.668,57.083 182.485 C 53.119 184.785,53.417 183.480,53.274 199.161 C 53.121 215.853,53.009 215.271,56.778 217.316 C 58.315 218.150,59.681 219.007,59.814 219.222 C 59.946 219.437,60.627 219.878,61.327 220.203 C 62.027 220.527,63.500 221.337,64.600 222.002 C 65.700 222.667,67.358 223.573,68.283 224.017 C 69.209 224.460,70.072 224.993,70.200 225.200 C 70.328 225.407,71.191 225.948,72.117 226.401 C 73.042 226.854,74.520 227.662,75.400 228.197 C 79.219 230.516,79.227 230.519,80.848 230.033 C 81.683 229.783,82.471 229.408,82.600 229.200 C 82.728 228.993,83.591 228.452,84.517 227.999 C 85.442 227.546,86.920 226.731,87.800 226.189 C 88.680 225.646,90.120 224.829,91.000 224.374 C 91.880 223.918,93.590 222.934,94.800 222.187 C 96.010 221.440,97.360 220.663,97.800 220.460 C 99.555 219.652,105.431 215.906,105.900 215.297 C 106.463 214.565,106.638 185.794,106.085 184.924 C 105.735 184.374,103.532 182.836,101.796 181.931 C 100.305 181.153,94.664 177.896,89.400 174.774 C 87.200 173.469,84.971 172.216,84.448 171.990 C 83.924 171.765,82.996 171.225,82.386 170.790 C 80.814 169.670,78.483 169.758,76.800 171.000 M82.051 174.235 C 82.793 174.584,84.300 175.387,85.400 176.020 C 86.500 176.653,88.210 177.632,89.200 178.197 C 91.273 179.378,93.901 180.897,96.200 182.241 C 97.080 182.756,98.610 183.620,99.600 184.161 C 100.590 184.702,101.895 185.614,102.500 186.188 L 103.600 187.232 103.600 200.134 L 103.600 213.036 101.700 214.441 C 100.655 215.214,99.350 216.068,98.800 216.339 C 98.250 216.610,96.900 217.363,95.800 218.012 C 94.700 218.661,92.990 219.651,92.000 220.211 C 91.010 220.771,89.532 221.627,88.716 222.114 C 79.577 227.569,80.121 227.494,74.334 224.096 C 73.308 223.493,70.897 222.100,68.975 221.000 C 67.054 219.900,64.654 218.511,63.641 217.914 C 62.629 217.316,61.080 216.487,60.200 216.070 C 59.320 215.653,58.011 214.761,57.292 214.088 L 55.984 212.864 56.092 199.809 L 56.200 186.754 57.200 185.949 C 57.750 185.506,58.920 184.784,59.800 184.345 C 60.680 183.905,62.390 182.931,63.600 182.180 C 64.810 181.429,66.340 180.537,67.000 180.198 C 67.660 179.858,69.034 179.090,70.053 178.490 C 78.752 173.372,79.587 173.075,82.051 174.235 M240.629 180.229 C 240.120 180.737,240.000 181.874,240.000 186.180 C 240.000 192.736,240.033 192.695,235.920 191.275 L 232.845 190.213 229.952 191.207 C 219.242 194.883,217.300 212.761,226.919 219.126 C 229.175 220.619,234.969 220.717,237.247 219.300 C 239.016 218.200,240.284 218.171,241.600 219.200 C 242.843 220.172,245.295 220.249,246.051 219.339 C 247.077 218.103,247.024 181.424,245.995 180.395 C 244.986 179.386,241.577 179.280,240.629 180.229 M163.400 183.567 C 158.589 185.860,156.320 189.699,155.555 196.842 C 153.964 211.677,158.742 220.215,168.619 220.190 L 172.639 220.179 174.992 218.390 C 181.999 213.061,183.962 197.677,178.793 188.600 C 175.594 182.981,169.092 180.855,163.400 183.567 M196.970 183.316 C 185.972 188.107,184.709 211.501,195.066 218.626 L 197.354 220.200 201.474 220.169 C 207.416 220.123,209.881 218.388,212.857 212.156 L 214.173 209.400 214.169 201.200 L 214.165 193.000 212.972 190.588 C 209.474 183.514,203.132 180.632,196.970 183.316 M132.200 184.228 C 130.660 184.781,128.719 185.430,127.886 185.669 C 124.079 186.763,125.243 190.400,129.400 190.400 C 132.988 190.400,132.800 189.747,132.800 202.190 C 132.800 214.807,133.223 213.707,128.252 214.020 C 124.269 214.271,123.600 214.714,123.600 217.103 C 123.600 220.121,123.093 220.000,135.734 220.000 C 148.374 220.000,148.000 220.086,148.000 217.169 C 148.000 214.716,147.388 214.258,143.851 214.066 C 139.687 213.840,140.000 215.055,140.000 199.133 L 140.000 185.164 139.018 184.182 C 137.735 182.899,135.859 182.912,132.200 184.228 M80.467 188.700 C 80.268 189.085,79.982 190.529,79.832 191.909 C 79.681 193.289,79.296 195.160,78.977 196.067 C 78.657 196.974,78.212 199.355,77.989 201.358 C 77.700 203.945,77.340 205.331,76.746 206.144 C 75.929 207.264,75.762 211.495,76.506 212.240 C 77.956 213.689,79.751 210.919,80.162 206.600 C 80.309 205.060,80.767 202.540,81.181 201.000 C 81.594 199.460,82.055 197.120,82.205 195.800 C 82.355 194.480,82.730 192.793,83.039 192.051 C 83.727 190.398,83.756 189.116,83.120 188.480 C 82.411 187.771,80.881 187.897,80.467 188.700 M171.460 189.014 C 172.523 190.468,171.518 192.566,165.689 201.055 C 165.407 201.465,164.867 202.308,164.489 202.930 C 162.942 205.468,162.928 205.478,162.124 204.686 C 159.602 202.199,162.454 189.774,165.880 188.319 C 167.210 187.754,170.872 188.210,171.460 189.014 M204.000 188.515 C 205.257 189.148,205.491 190.767,204.544 192.277 C 195.026 207.453,194.194 208.088,194.503 199.938 C 194.859 190.518,198.730 185.862,204.000 188.515 M264.385 191.347 C 252.173 195.471,250.644 212.365,261.894 218.867 C 264.185 220.191,264.234 220.200,269.400 220.198 L 274.600 220.197 277.000 218.773 C 279.821 217.098,279.995 216.643,278.500 214.852 L 277.378 213.508 274.364 214.354 C 268.180 216.089,262.825 214.128,262.135 209.875 C 261.797 207.794,262.616 207.600,271.764 207.600 C 280.970 207.600,281.005 207.584,280.993 203.458 C 280.965 194.221,273.023 188.429,264.385 191.347 M329.600 191.237 C 317.835 194.327,320.842 205.393,334.174 208.067 C 337.934 208.821,340.931 211.796,339.577 213.428 C 337.370 216.087,332.658 215.975,325.658 213.098 L 323.515 212.218 322.558 213.331 C 321.169 214.946,321.589 217.301,323.361 217.840 C 323.822 217.981,325.190 218.569,326.400 219.148 C 331.816 221.738,341.742 220.369,344.885 216.598 C 349.612 210.929,346.317 206.015,335.600 202.748 C 329.957 201.028,328.631 199.861,329.785 197.629 C 330.809 195.649,336.455 195.392,339.933 197.166 C 342.193 198.319,342.993 198.217,344.207 196.626 C 347.130 192.794,337.374 189.195,329.600 191.237 M287.550 192.221 C 286.831 192.941,287.601 195.426,292.009 206.600 C 293.552 210.511,295.068 214.463,295.846 216.600 C 297.533 221.233,306.000 221.179,306.000 216.536 C 306.000 216.186,306.433 214.888,306.963 213.650 C 307.492 212.413,308.197 210.590,308.528 209.600 C 309.741 205.971,311.148 202.345,311.523 201.878 C 311.734 201.615,312.040 200.770,312.203 200.000 C 312.365 199.230,312.821 197.962,313.215 197.181 C 315.129 193.399,314.622 191.600,311.640 191.600 C 309.485 191.600,308.005 192.460,307.987 193.723 C 307.981 194.205,307.532 195.500,306.991 196.600 C 306.450 197.700,306.006 198.924,306.004 199.320 C 306.002 199.716,305.698 200.616,305.329 201.320 C 304.961 202.024,304.340 203.680,303.951 205.000 C 302.613 209.536,301.487 212.400,301.044 212.393 C 300.542 212.385,299.049 208.899,298.136 205.600 C 297.801 204.390,297.386 203.220,297.215 203.000 C 297.044 202.780,296.690 201.880,296.429 201.000 C 296.167 200.120,295.622 198.590,295.216 197.600 C 294.810 196.610,294.271 195.027,294.018 194.082 C 293.379 191.701,289.257 190.515,287.550 192.221 M70.754 192.720 C 70.229 193.116,68.396 194.151,66.680 195.020 C 60.200 198.302,59.589 201.740,65.000 204.485 C 66.831 205.414,69.734 206.973,71.200 207.814 C 73.189 208.956,74.805 208.329,74.794 206.420 C 74.785 204.877,72.954 203.311,69.445 201.845 C 67.183 200.900,67.498 198.847,70.002 198.211 C 71.992 197.706,74.800 195.286,74.800 194.076 C 74.800 191.992,72.666 191.277,70.754 192.720 M84.211 192.382 C 83.349 193.777,85.327 196.021,89.005 197.820 C 93.002 199.776,92.867 200.745,88.278 203.035 L 85.000 204.671 85.000 206.435 C 85.000 208.654,86.797 209.113,89.242 207.519 C 90.017 207.014,91.874 205.970,93.368 205.200 C 98.381 202.617,99.702 200.271,97.500 197.858 C 95.063 195.188,85.032 191.054,84.211 192.382 M272.346 197.092 C 273.880 198.228,274.794 200.978,273.925 201.847 C 273.045 202.726,264.698 203.079,263.200 202.300 C 261.007 201.160,263.469 196.699,266.530 196.267 C 268.806 195.946,271.269 196.296,272.346 197.092 M237.998 197.398 C 239.976 198.858,239.988 198.903,239.988 205.000 C 239.988 211.230,239.757 212.058,237.618 213.500 C 231.652 217.520,226.753 211.711,228.166 202.290 C 228.877 197.549,234.446 194.778,237.998 197.398 M175.428 199.049 C 176.618 206.983,173.031 214.800,168.200 214.800 C 164.113 214.800,163.468 212.821,166.201 208.663 C 167.190 207.157,168.000 205.776,168.000 205.594 C 168.000 205.411,168.417 204.753,168.927 204.131 C 169.436 203.509,170.506 201.942,171.305 200.648 C 172.554 198.623,173.850 197.385,174.875 197.239 C 175.027 197.218,175.276 198.032,175.428 199.049 M208.051 198.300 C 209.583 202.207,207.159 212.744,204.436 214.012 C 198.907 216.587,195.624 212.960,199.411 208.460 C 199.955 207.814,200.400 207.163,200.400 207.016 C 200.400 206.868,200.805 206.174,201.301 205.473 C 201.797 204.773,202.382 203.898,202.601 203.530 C 206.304 197.308,207.291 196.361,208.051 198.300 " stroke="none" fill="#dfe8fb" fill-rule="evenodd"></path></g></svg>