<svg width="160" height="32" viewBox="0 0 160 32" fill="none" xmlns="http://www.w3.org/2000/svg">
  <path d="M49.4348 20.5161L50.4051 22.7742H52.7587L46.751 9H46.0077L40 22.7742H42.3329L43.3032 20.5161H49.4348ZM46.3793 13.0235L48.6297 18.6481H44.1084L46.3793 13.0235Z" fill="white"/>
  <path d="M68.8435 9.22581H66.6551V18.3607L58.3764 9H57.6126V22.7742H59.8009V13.6188L68.1003 23H68.8435V9.22581Z" fill="white"/>
  <path d="M81.2912 9C77.3274 9 74.148 12.0381 74.148 16C74.148 19.9619 77.3067 23 81.2912 23C85.2345 23 88.4551 19.9824 88.4551 16C88.4551 12.0381 85.2345 9 81.2912 9ZM81.3119 10.9912C84.099 10.9912 86.2048 13.1261 86.2048 15.9795C86.2048 18.8944 84.099 21.0088 81.3119 21.0088C78.4835 21.0088 76.419 18.8944 76.419 15.9795C76.419 13.1056 78.4835 10.9912 81.3119 10.9912Z" fill="white"/>
  <path d="M106.711 9H105.968L100.249 16.5748L94.5304 9H93.7665V22.7742H95.9549V14.2757L99.8775 19.3666H100.621L104.523 14.2757V22.7742H106.711V9Z" fill="white"/>
  <path d="M120.997 20.5161L121.967 22.7742H124.321L118.313 9H117.57L111.562 22.7742H113.895L114.865 20.5161H120.997ZM117.941 13.0235L120.192 18.6481H115.67L117.941 13.0235Z" fill="white"/>
  <path d="M131.363 20.824V9.22581H129.175V22.7742H137.598V20.824H131.363Z" fill="white"/>
  <path d="M144.672 22.7742V9.22581H142.483V22.7742H144.672Z" fill="white"/>
  <path d="M159.752 11.176V9.22581H150.792V22.7742H160V20.824H152.981V16.5337H158.08V14.6452H152.981V11.176H159.752Z" fill="white"/>
  <path fill-rule="evenodd" clip-rule="evenodd" d="M8 22.8571L15.4286 6.85714H16.5714L24 22.8571H20.5714L20 20.5714H12L11.4286 22.8571H8ZM16 32C7.16343 32 0 24.8366 0 16C0 7.16343 7.16343 0 16 0C24.8366 0 32 7.16343 32 16C32 24.8366 24.8366 32 16 32ZM16 29.7143C23.5737 29.7143 29.7143 23.5737 29.7143 16C29.7143 8.42629 23.5737 2.28572 16 2.28572C8.42629 2.28572 2.28571 8.42629 2.28571 16C2.28571 23.5737 8.42629 29.7143 16 29.7143ZM13.1429 18.2857L16 11.4286L18.8571 18.2857H13.1429Z" fill="white"/>
</svg>
