<svg viewBox="0 0 640 400" data-background-color="#333366" preserveAspectRatio="xMidYMid meet" height="400" width="640" xmlns="http://www.w3.org/2000/svg" xmlns:xlink="http://www.w3.org/1999/xlink">
  <!-- <rect width="640" height="400" x="0" y="0" opacity="1" fill="#333366" data-fill-palette-color="background" id="background"></rect> -->
  <g id="tight-bounds" transform="matrix(1,0,0,1,64,40)">
  <svg viewBox="0 0 512 320" height="320" width="512">
    <g>
      <svg></svg>
    </g>
    <g>
    <svg viewBox="0 0 512 320" height="320" width="512">
      <g>
        <path d="M96 160c0-88.366 71.634-160 160-160 88.366 0 160 71.634 160 160 0 88.366-71.634 160-160 160-88.366 0-160-71.634-160-160zM256 315.437c85.846 0 155.437-69.592 155.437-155.437 0-85.846-69.592-155.437-155.437-155.437-85.846 0-155.437 69.592-155.437 155.437 0 85.846 69.592 155.437 155.437 155.437z" fill="#ffffff" data-fill-palette-color="tertiary"></path>
      </g>
      <g transform="matrix(1,0,0,1,128,147.35079695079696)">
        <svg viewBox="0 0 256 25.2984060984061" height="25.2984060984061" width="256">
          <g>
            <svg viewBox="0 0 256 25.2984060984061" height="25.2984060984061" width="256">
              <g>
                <svg viewBox="0 0 256 25.2984060984061" height="25.2984060984061" width="256">
                  <g>
                    <svg viewBox="0 0 256 25.2984060984061" height="25.2984060984061" width="256">
                      <g>
                        <svg viewBox="0 0 256 25.2984060984061" height="25.2984060984061" width="256">
                          <g transform="matrix(1,0,0,1,0,0)">
                            <svg width="256" viewBox="5 -35.04999923706055 360.7200012207031 35.64999771118164" height="25.2984060984061" data-palette-color="#ffffff">
                              <path d="M12.2-34.45Q20-34.45 24.73-30.83 29.45-27.2 29.45-17.4L29.45-17.4Q29.45-7.85 24.73-3.93 20 0 13.25 0L13.25 0 5 0 5-34.45 12.2-34.45ZM13.25-30.65L9.75-30.65 9.75-3.75 13.6-3.75Q18.4-3.75 21.4-6.7 24.4-9.65 24.4-17.4L24.4-17.4Q24.4-22.85 22.85-25.78 21.3-28.7 18.9-29.68 16.5-30.65 13.25-30.65L13.25-30.65ZM60.55 0L55.55 0 52.95-8.65 39.9-8.65 37.3 0 32.5 0 43.55-34.45 49.55-34.45 60.55 0ZM46.45-30.5L41.05-12.5 51.8-12.5 46.45-30.5ZM83.55-34.45L88.35-34.45 77.35 0 72.25 0 61.15-34.45 66.25-34.45 74.9-5.15 83.55-34.45ZM93.64-34.45L98.39-34.45 98.39 0 93.64 0 93.64-34.45ZM115.59-34.45Q123.39-34.45 128.12-30.83 132.84-27.2 132.84-17.4L132.84-17.4Q132.84-7.85 128.12-3.93 123.39 0 116.64 0L116.64 0 108.39 0 108.39-34.45 115.59-34.45ZM116.64-30.65L113.14-30.65 113.14-3.75 116.99-3.75Q121.79-3.75 124.79-6.7 127.79-9.65 127.79-17.4L127.79-17.4Q127.79-22.85 126.24-25.78 124.69-28.7 122.29-29.68 119.89-30.65 116.64-30.65L116.64-30.65ZM181.79-34.45L184.64 0 180.04 0 178.84-15.55Q178.09-24.7 177.99-29.6L177.99-29.6 170.54-3.9 166.09-3.9 158.24-29.65Q158.24-23.4 157.59-15.2L157.59-15.2 156.44 0 151.94 0 154.79-34.45 161.19-34.45 168.44-9.4 175.34-34.45 181.79-34.45ZM216.08 0L211.08 0 208.48-8.65 195.43-8.65 192.83 0 188.03 0 199.08-34.45 205.08-34.45 216.08 0ZM201.98-30.5L196.58-12.5 207.33-12.5 201.98-30.5ZM239.73 0L231.48-14.6 226.13-14.6 226.13 0 221.38 0 221.38-34.45 230.43-34.45Q236.88-34.45 240.21-32 243.53-29.55 243.53-24.7L243.53-24.7Q243.53-21.1 241.68-18.85 239.83-16.6 236.08-15.45L236.08-15.45 245.38 0 239.73 0ZM226.13-18.25L230.93-18.25Q234.68-18.25 236.58-19.78 238.48-21.3 238.48-24.7L238.48-24.7Q238.48-27.9 236.56-29.33 234.63-30.75 230.38-30.75L230.38-30.75 226.13-30.75 226.13-18.25ZM269.98 0L261.73-14.6 256.38-14.6 256.38 0 251.63 0 251.63-34.45 260.68-34.45Q267.13-34.45 270.45-32 273.78-29.55 273.78-24.7L273.78-24.7Q273.78-21.1 271.93-18.85 270.08-16.6 266.33-15.45L266.33-15.45 275.63 0 269.98 0ZM256.38-18.25L261.18-18.25Q264.93-18.25 266.83-19.78 268.73-21.3 268.73-24.7L268.73-24.7Q268.73-27.9 266.8-29.33 264.88-30.75 260.63-30.75L260.63-30.75 256.38-30.75 256.38-18.25ZM281.88-34.45L300.53-34.45 299.98-30.65 286.63-30.65 286.63-19.4 298.23-19.4 298.23-15.6 286.63-15.6 286.63-3.8 300.93-3.8 300.93 0 281.88 0 281.88-34.45ZM326.97 0L318.72-14.6 313.37-14.6 313.37 0 308.62 0 308.62-34.45 317.67-34.45Q324.12-34.45 327.45-32 330.77-29.55 330.77-24.7L330.77-24.7Q330.77-21.1 328.92-18.85 327.07-16.6 323.32-15.45L323.32-15.45 332.62 0 326.97 0ZM313.37-18.25L318.17-18.25Q321.92-18.25 323.82-19.78 325.72-21.3 325.72-24.7L325.72-24.7Q325.72-27.9 323.8-29.33 321.87-30.75 317.62-30.75L317.62-30.75 313.37-30.75 313.37-18.25ZM351.17-35.05Q355.52-35.05 358.8-32.98 362.07-30.9 363.9-26.9 365.72-22.9 365.72-17.2L365.72-17.2Q365.72-11.6 363.9-7.6 362.07-3.6 358.8-1.5 355.52 0.6 351.17 0.6L351.17 0.6Q346.82 0.6 343.55-1.45 340.27-3.5 338.45-7.5 336.62-11.5 336.62-17.15L336.62-17.15Q336.62-22.7 338.45-26.75 340.27-30.8 343.57-32.93 346.87-35.05 351.17-35.05L351.17-35.05ZM351.17-31.15Q346.67-31.15 344.17-27.75 341.67-24.35 341.67-17.15L341.67-17.15Q341.67-10 344.2-6.65 346.72-3.3 351.17-3.3L351.17-3.3Q360.67-3.3 360.67-17.2L360.67-17.2Q360.67-31.15 351.17-31.15L351.17-31.15Z" opacity="1" transform="matrix(1,0,0,1,0,0)" fill="#ffffff" class="undefined-text-0" data-fill-palette-color="primary" id="text-0"></path>
                            </svg>
                          </g>
                        </svg>
                      </g>
                    </svg>
                  </g>
                </svg>
              </g>
              <g>
              </g>
            </svg>
          </g>
        </svg>
      </g>
    </svg>
  </g>
</svg><rect width="512" height="320" fill="none" stroke="none" visibility="hidden"></rect></g><defs></defs></svg>